<svg width="27" height="28" viewBox="0 0 27 28" fill="none" xmlns="http://www.w3.org/2000/svg">
<path d="M13.0068 0C8.36664 0 4.65453 3.601 4.65453 8.01223C4.65453 14.6741 12.0788 20.3457 12.45 20.5257C12.6356 20.6157 12.8212 20.7058 13.0068 20.7058C13.1924 20.7058 13.378 20.6157 13.5636 20.5257C13.9348 20.2556 21.3591 14.6741 21.3591 8.01223C21.3591 3.601 17.6469 0 13.0068 0ZM13.0068 10.803C11.4291 10.803 10.2227 9.63268 10.2227 8.10226C10.2227 6.57183 11.4291 5.4015 13.0068 5.4015C14.5844 5.4015 15.7909 6.57183 15.7909 8.10226C15.7909 9.63268 14.5844 10.803 13.0068 10.803Z" fill="#D6D6D6"/>
<path d="M25.9064 25.747L22.1943 18.545C22.0087 18.1849 21.7303 18.0049 21.359 18.0049H20.2454C18.0181 21.2458 15.234 23.4064 14.6772 23.7665C14.2132 24.1266 13.6564 24.3066 13.0068 24.3066C12.3572 24.3066 11.8003 24.1266 11.3363 23.7665C10.8723 23.4064 7.99541 21.2458 5.76814 18.0049H4.65451C4.28329 18.0049 4.00488 18.1849 3.81928 18.545L0.10716 25.747C-0.0784463 26.0171 0.0143567 26.3772 0.10716 26.6473C0.199963 26.9174 0.663978 27.0074 0.942387 27.0074H25.0712C25.3496 27.0074 25.7208 26.8273 25.9064 26.5573C26.092 26.2872 25.9992 26.0171 25.9064 25.747Z" fill="#D6D6D6"/>
</svg>
