<svg width="27" height="27" viewBox="0 0 27 27" fill="none" xmlns="http://www.w3.org/2000/svg">
<path d="M22.7619 17.187V21.4445C22.7652 21.7576 22.7006 22.0676 22.5725 22.3532C22.4445 22.6389 22.2561 22.8935 22.0202 23.0994C21.7843 23.3053 21.5065 23.4577 21.2061 23.546C20.9056 23.6344 20.5896 23.6566 20.2797 23.6112C15.9842 23.0597 11.9944 21.0954 8.93887 18.0278C5.88339 14.9601 3.93596 10.9636 3.40344 6.66788C3.35816 6.35907 3.38016 6.04414 3.46794 5.74462C3.55572 5.4451 3.7072 5.16807 3.91203 4.93249C4.11685 4.69691 4.37018 4.50833 4.65468 4.37967C4.93918 4.25102 5.24813 4.18531 5.5604 4.18705H9.75508C10.023 4.18542 10.2821 4.28306 10.4823 4.46111C10.6824 4.63917 10.8095 4.88502 10.839 5.15121C10.9465 6.571 11.3139 7.959 11.9229 9.24621C12.0273 9.48999 12.0386 9.76358 11.9547 10.0152C11.8708 10.2667 11.6975 10.4788 11.4676 10.6112L10.5355 11.142C10.4011 11.2159 10.284 11.3174 10.1918 11.4399C10.0996 11.5623 10.0344 11.703 10.0006 11.8524C9.96679 12.0019 9.96511 12.1569 9.99565 12.3071C10.0262 12.4573 10.0883 12.5993 10.1778 12.7237C11.2501 14.2937 12.6066 15.6494 14.1774 16.7212C14.3019 16.8107 14.444 16.8727 14.5942 16.9033C14.7445 16.9338 14.8995 16.9321 15.0491 16.8983C15.1987 16.8645 15.3394 16.7994 15.4619 16.7072C15.5844 16.6151 15.686 16.498 15.7599 16.3637L16.291 15.432C16.4314 15.1993 16.6542 15.0277 16.9152 14.9515C17.1762 14.8752 17.4563 14.8998 17.7001 15.0204C18.9879 15.629 20.3767 15.9962 21.7972 16.1037C22.0635 16.1332 22.3095 16.2602 22.4876 16.4602C22.6658 16.6603 22.7635 16.9192 22.7619 17.187Z" fill="#D6D6D6"/>
</svg>
