<svg width="27" height="26" viewBox="0 0 27 26" fill="none" xmlns="http://www.w3.org/2000/svg">
<g clip-path="url(#clip0_0_10)">
<path d="M0 12.1127C0 6.40262 0 3.54462 1.82821 1.77348C3.65642 0.00234737 6.60018 0 12.4865 0H13.527C19.4134 0 22.3596 0 24.1853 1.77348C26.0111 3.54697 26.0135 6.40262 26.0135 12.1127V13.1221C26.0135 18.8323 26.0135 21.6903 24.1853 23.4614C22.3571 25.2325 19.4134 25.2349 13.527 25.2349H12.4865C6.60018 25.2349 3.654 25.2349 1.82821 23.4614C0.0024198 21.6879 0 18.8323 0 13.1221V12.1127Z" fill="#D6D6D6"/>
<path d="M13.5512 17.7232C8.00249 17.7232 4.83973 14.033 4.70663 7.89331H7.48948C7.58022 12.4004 9.62985 14.3088 11.2524 14.7009V7.89331H13.8695V11.7807C15.4714 11.6128 17.1556 9.84168 17.7231 7.89331H20.3402C19.9046 10.2947 18.0788 12.0659 16.7806 12.7936C18.0788 13.3804 20.1575 14.9286 20.9488 17.7232H18.0631C17.4448 15.8452 15.9033 14.4016 13.8646 14.202V17.7232H13.5512Z" fill="#030303"/>
</g>
<defs>
<clipPath id="clip0_0_10">
<rect width="26.0135" height="25.2349" fill="white"/>
</clipPath>
</defs>
</svg>
