<svg width="31" height="30" viewBox="0 0 31 30" fill="none" xmlns="http://www.w3.org/2000/svg">
<g clip-path="url(#clip0_0_157)">
<path d="M0.418579 14.4C0.418579 7.61163 0.418579 4.21395 2.52695 2.10837C4.63532 0.00279063 8.03021 0 14.8186 0H16.0186C22.807 0 26.2046 0 28.3102 2.10837C30.4158 4.21674 30.4186 7.61163 30.4186 14.4V15.6C30.4186 22.3884 30.4186 25.786 28.3102 27.8916C26.2018 29.9972 22.807 30 16.0186 30H14.8186C8.03021 30 4.63253 30 2.52695 27.8916C0.42137 25.7833 0.418579 22.3884 0.418579 15.6V14.4Z" fill="url(#paint0_linear_0_157)"/>
<path d="M16.0465 21.0698C9.64743 21.0698 5.99998 16.6829 5.8465 9.38379H9.0558C9.16045 14.7419 11.5242 17.0108 13.3953 17.4768V9.38379H16.4135V14.0052C18.2609 13.8057 20.2032 11.7001 20.8577 9.38379H23.8758C23.3735 12.2387 21.2679 14.3443 19.7707 15.2094C21.2679 15.907 23.6651 17.7475 24.5777 21.0698H21.2498C20.5367 18.8373 18.7591 17.121 16.4079 16.8838V21.0698H16.0465Z" fill="#EFECE3"/>
</g>
<defs>
<linearGradient id="paint0_linear_0_157" x1="15.3863" y1="-6.19271e-09" x2="15.5304" y2="29.9995" gradientUnits="userSpaceOnUse">
<stop stop-color="#F06D44"/>
<stop offset="1" stop-color="#83096F"/>
</linearGradient>
<clipPath id="clip0_0_157">
<rect width="30" height="30" fill="white" transform="translate(0.418579)"/>
</clipPath>
</defs>
</svg>
